<mxfile host="app.diagrams.net" modified="2022-04-07T05:50:45.883Z" agent="5.0 (Windows NT 10.0; Win64; x64) AppleWebKit/537.36 (KHTML, like Gecko) Chrome/100.0.4896.75 Safari/537.36" etag="KU3fUOhbx1Eck3aOa5ul" version="17.4.0" type="github">
  <diagram name="Page-1" id="74e2e168-ea6b-b213-b513-2b3c1d86103e">
    <mxGraphModel dx="1422" dy="762" grid="1" gridSize="10" guides="1" tooltips="1" connect="1" arrows="1" fold="1" page="1" pageScale="1" pageWidth="1100" pageHeight="850" background="none" math="0" shadow="0">
      <root>
        <mxCell id="0" />
        <mxCell id="1" parent="0" />
        <mxCell id="77e6c97f196da883-1" value="&lt;font style=&quot;font-size: 18px&quot;&gt;ontheway outsourcing process diagram&lt;/font&gt;" style="swimlane;html=1;childLayout=stackLayout;startSize=20;rounded=0;shadow=0;labelBackgroundColor=none;strokeWidth=1;fontFamily=Verdana;fontSize=8;align=center;fillColor=#e1d5e7;strokeColor=#9673a6;" parent="1" vertex="1">
          <mxGeometry x="70" y="40" width="670" height="1160" as="geometry">
            <mxRectangle x="70" y="40" width="210" height="20" as="alternateBounds" />
          </mxGeometry>
        </mxCell>
        <mxCell id="77e6c97f196da883-2" value="buyer" style="swimlane;html=1;startSize=20;" parent="77e6c97f196da883-1" vertex="1">
          <mxGeometry y="20" width="160" height="1140" as="geometry" />
        </mxCell>
        <mxCell id="77e6c97f196da883-8" value="&lt;font style=&quot;font-size: 12px&quot;&gt;Customer signs in/up as buyer&lt;/font&gt;" style="rounded=1;whiteSpace=wrap;html=1;shadow=0;labelBackgroundColor=none;strokeWidth=1;fontFamily=Verdana;fontSize=8;align=center;fillColor=#dae8fc;strokeColor=#6c8ebf;" parent="77e6c97f196da883-2" vertex="1">
          <mxGeometry x="30" y="136" width="100" height="60" as="geometry" />
        </mxCell>
        <mxCell id="77e6c97f196da883-10" value="&lt;font style=&quot;font-size: 12px&quot;&gt;Buyer offers work to seller&lt;/font&gt;" style="rounded=1;whiteSpace=wrap;html=1;shadow=0;labelBackgroundColor=none;strokeWidth=1;fontFamily=Verdana;fontSize=8;align=center;fillColor=#dae8fc;strokeColor=#6c8ebf;" parent="77e6c97f196da883-2" vertex="1">
          <mxGeometry x="30" y="325" width="100" height="60" as="geometry" />
        </mxCell>
        <mxCell id="wOlXXrE9V5EayPUPCzCK-372" style="edgeStyle=orthogonalEdgeStyle;curved=1;rounded=0;orthogonalLoop=1;jettySize=auto;html=1;exitX=0.5;exitY=1;exitDx=0;exitDy=0;entryX=0.5;entryY=0;entryDx=0;entryDy=0;fontSize=12;" edge="1" parent="77e6c97f196da883-2" target="wOlXXrE9V5EayPUPCzCK-368">
          <mxGeometry relative="1" as="geometry">
            <mxPoint x="80" y="711" as="sourcePoint" />
          </mxGeometry>
        </mxCell>
        <mxCell id="wOlXXrE9V5EayPUPCzCK-364" value="&lt;font style=&quot;font-size: 12px&quot;&gt;Buyer receives work to review&amp;nbsp;&lt;/font&gt;" style="whiteSpace=wrap;html=1;fontSize=8;fontFamily=Verdana;fillColor=#dae8fc;strokeColor=#6c8ebf;rounded=1;shadow=0;labelBackgroundColor=none;strokeWidth=1;" vertex="1" parent="77e6c97f196da883-2">
          <mxGeometry x="20" y="650" width="120" height="60" as="geometry" />
        </mxCell>
        <mxCell id="wOlXXrE9V5EayPUPCzCK-439" style="edgeStyle=orthogonalEdgeStyle;rounded=0;orthogonalLoop=1;jettySize=auto;html=1;exitX=0.5;exitY=1;exitDx=0;exitDy=0;entryX=-0.011;entryY=0.717;entryDx=0;entryDy=0;entryPerimeter=0;fontSize=12;" edge="1" parent="77e6c97f196da883-2" source="wOlXXrE9V5EayPUPCzCK-368" target="wOlXXrE9V5EayPUPCzCK-373">
          <mxGeometry relative="1" as="geometry" />
        </mxCell>
        <mxCell id="wOlXXrE9V5EayPUPCzCK-368" value="&lt;span style=&quot;font-size: 12px&quot;&gt;Buyer likes current work&lt;/span&gt;" style="rhombus;whiteSpace=wrap;html=1;fontSize=8;fontFamily=Verdana;rounded=1;shadow=0;labelBackgroundColor=none;strokeWidth=1;fillColor=#fff2cc;strokeColor=#d6b656;" vertex="1" parent="77e6c97f196da883-2">
          <mxGeometry x="25" y="751" width="110" height="125" as="geometry" />
        </mxCell>
        <mxCell id="wOlXXrE9V5EayPUPCzCK-373" value="yes" style="text;html=1;resizable=0;autosize=1;align=center;verticalAlign=middle;points=[];fillColor=none;strokeColor=none;rounded=0;fontSize=12;" vertex="1" parent="77e6c97f196da883-2">
          <mxGeometry x="114" y="919" width="30" height="20" as="geometry" />
        </mxCell>
        <mxCell id="wOlXXrE9V5EayPUPCzCK-440" style="edgeStyle=orthogonalEdgeStyle;rounded=0;orthogonalLoop=1;jettySize=auto;html=1;exitX=0.5;exitY=1;exitDx=0;exitDy=0;entryX=0.5;entryY=0;entryDx=0;entryDy=0;fontSize=12;" edge="1" parent="77e6c97f196da883-2" source="wOlXXrE9V5EayPUPCzCK-427" target="77e6c97f196da883-8">
          <mxGeometry relative="1" as="geometry" />
        </mxCell>
        <mxCell id="wOlXXrE9V5EayPUPCzCK-427" value="Found buyer" style="ellipse;whiteSpace=wrap;html=1;fontSize=12;gradientDirection=radial;fillColor=#e1d5e7;strokeColor=#9673a6;" vertex="1" parent="77e6c97f196da883-2">
          <mxGeometry x="20" y="37" width="120" height="70" as="geometry" />
        </mxCell>
        <mxCell id="77e6c97f196da883-3" value="website" style="swimlane;html=1;startSize=20;" parent="77e6c97f196da883-1" vertex="1">
          <mxGeometry x="160" y="20" width="160" height="1140" as="geometry" />
        </mxCell>
        <mxCell id="wOlXXrE9V5EayPUPCzCK-340" value="&amp;nbsp;Order Canceled" style="rounded=1;whiteSpace=wrap;html=1;fontSize=12;gradientDirection=radial;arcSize=50;fillColor=#f8cecc;strokeColor=#b85450;" vertex="1" parent="77e6c97f196da883-3">
          <mxGeometry x="20" y="396" width="120" height="60" as="geometry" />
        </mxCell>
        <mxCell id="77e6c97f196da883-9" value="&lt;font style=&quot;font-size: 12px&quot;&gt;Buyer finds seller(queens)&lt;/font&gt;" style="rounded=1;whiteSpace=wrap;html=1;shadow=0;labelBackgroundColor=none;strokeWidth=1;fontFamily=Verdana;fontSize=8;align=center;gradientDirection=radial;fillColor=#dae8fc;strokeColor=#6c8ebf;" parent="77e6c97f196da883-3" vertex="1">
          <mxGeometry x="30" y="211" width="100" height="60" as="geometry" />
        </mxCell>
        <mxCell id="wOlXXrE9V5EayPUPCzCK-375" value="no" style="text;html=1;resizable=0;autosize=1;align=center;verticalAlign=middle;points=[];fillColor=none;strokeColor=none;rounded=0;fontSize=12;" vertex="1" parent="77e6c97f196da883-3">
          <mxGeometry x="72" y="803" width="30" height="20" as="geometry" />
        </mxCell>
        <mxCell id="wOlXXrE9V5EayPUPCzCK-416" value="Buyer pays ontheway&amp;nbsp;" style="rounded=1;whiteSpace=wrap;html=1;fontSize=12;gradientDirection=radial;fillColor=#dae8fc;strokeColor=#6c8ebf;" vertex="1" parent="77e6c97f196da883-3">
          <mxGeometry x="20" y="899" width="120" height="60" as="geometry" />
        </mxCell>
        <mxCell id="wOlXXrE9V5EayPUPCzCK-425" value="Order done" style="whiteSpace=wrap;html=1;fillColor=#e1d5e7;strokeColor=#9673a6;rounded=1;gradientDirection=radial;arcSize=50;" vertex="1" parent="77e6c97f196da883-3">
          <mxGeometry x="20" y="1022" width="120" height="60" as="geometry" />
        </mxCell>
        <mxCell id="wOlXXrE9V5EayPUPCzCK-426" value="" style="edgeStyle=orthogonalEdgeStyle;curved=1;rounded=0;orthogonalLoop=1;jettySize=auto;html=1;fontSize=12;" edge="1" parent="77e6c97f196da883-3">
          <mxGeometry relative="1" as="geometry">
            <mxPoint x="80" y="960" as="sourcePoint" />
            <mxPoint x="80" y="1021" as="targetPoint" />
            <Array as="points">
              <mxPoint x="80" y="990" />
              <mxPoint x="80" y="990" />
            </Array>
          </mxGeometry>
        </mxCell>
        <mxCell id="77e6c97f196da883-4" value="seller" style="swimlane;html=1;startSize=20;" parent="77e6c97f196da883-1" vertex="1">
          <mxGeometry x="320" y="20" width="190" height="1140" as="geometry" />
        </mxCell>
        <mxCell id="wOlXXrE9V5EayPUPCzCK-36" value="Seller sign up/in through queen app" style="rounded=1;whiteSpace=wrap;html=1;fontSize=12;gradientDirection=radial;fillColor=#dae8fc;strokeColor=#6c8ebf;" vertex="1" parent="77e6c97f196da883-4">
          <mxGeometry x="40" y="136" width="120" height="60" as="geometry" />
        </mxCell>
        <mxCell id="wOlXXrE9V5EayPUPCzCK-42" value="&lt;font style=&quot;font-size: 12px&quot;&gt;She accepted offer?&lt;/font&gt;" style="rhombus;whiteSpace=wrap;html=1;fontSize=8;fontFamily=Verdana;rounded=1;shadow=0;labelBackgroundColor=none;strokeWidth=1;fillColor=#fff2cc;strokeColor=#d6b656;" vertex="1" parent="77e6c97f196da883-4">
          <mxGeometry x="60" y="386" width="80" height="80" as="geometry" />
        </mxCell>
        <mxCell id="wOlXXrE9V5EayPUPCzCK-344" value="&lt;font style=&quot;font-size: 12px&quot;&gt;seller works on her task given by buyer&lt;/font&gt;" style="whiteSpace=wrap;html=1;fontSize=8;fontFamily=Verdana;rounded=1;shadow=0;labelBackgroundColor=none;strokeWidth=1;fillColor=#dae8fc;strokeColor=#6c8ebf;" vertex="1" parent="77e6c97f196da883-4">
          <mxGeometry x="40" y="537" width="120" height="60" as="geometry" />
        </mxCell>
        <mxCell id="wOlXXrE9V5EayPUPCzCK-362" value="&lt;font style=&quot;font-size: 12px&quot;&gt;Seller sends her work to buyer for review&lt;/font&gt;" style="whiteSpace=wrap;html=1;fontSize=8;fontFamily=Verdana;fillColor=#dae8fc;strokeColor=#6c8ebf;rounded=1;shadow=0;labelBackgroundColor=none;strokeWidth=1;" vertex="1" parent="77e6c97f196da883-4">
          <mxGeometry x="40" y="651" width="120" height="60" as="geometry" />
        </mxCell>
        <mxCell id="wOlXXrE9V5EayPUPCzCK-363" value="" style="edgeStyle=orthogonalEdgeStyle;curved=1;rounded=0;orthogonalLoop=1;jettySize=auto;html=1;fontSize=12;" edge="1" parent="77e6c97f196da883-4" source="wOlXXrE9V5EayPUPCzCK-344" target="wOlXXrE9V5EayPUPCzCK-362">
          <mxGeometry relative="1" as="geometry" />
        </mxCell>
        <mxCell id="wOlXXrE9V5EayPUPCzCK-382" value="" style="edgeStyle=orthogonalEdgeStyle;curved=1;rounded=0;orthogonalLoop=1;jettySize=auto;html=1;fontSize=12;" edge="1" parent="77e6c97f196da883-4" source="wOlXXrE9V5EayPUPCzCK-380" target="wOlXXrE9V5EayPUPCzCK-362">
          <mxGeometry relative="1" as="geometry" />
        </mxCell>
        <mxCell id="wOlXXrE9V5EayPUPCzCK-380" value="Seller reworks on buyer task." style="rounded=1;whiteSpace=wrap;html=1;fontSize=12;gradientDirection=radial;fillColor=#dae8fc;strokeColor=#6c8ebf;" vertex="1" parent="77e6c97f196da883-4">
          <mxGeometry x="40" y="783" width="120" height="60" as="geometry" />
        </mxCell>
        <mxCell id="wOlXXrE9V5EayPUPCzCK-423" value="Ontheway pays queen 80% of the total money" style="whiteSpace=wrap;html=1;fillColor=#dae8fc;strokeColor=#6c8ebf;rounded=1;gradientDirection=radial;" vertex="1" parent="77e6c97f196da883-4">
          <mxGeometry x="35" y="899" width="120" height="60" as="geometry" />
        </mxCell>
        <mxCell id="wOlXXrE9V5EayPUPCzCK-441" style="edgeStyle=orthogonalEdgeStyle;rounded=0;orthogonalLoop=1;jettySize=auto;html=1;exitX=0.5;exitY=1;exitDx=0;exitDy=0;entryX=0.5;entryY=0;entryDx=0;entryDy=0;fontSize=12;" edge="1" parent="77e6c97f196da883-4">
          <mxGeometry relative="1" as="geometry">
            <mxPoint x="89" y="100" as="sourcePoint" />
            <mxPoint x="94" y="136" as="targetPoint" />
          </mxGeometry>
        </mxCell>
        <mxCell id="wOlXXrE9V5EayPUPCzCK-437" value="Found seller" style="ellipse;whiteSpace=wrap;html=1;fontSize=12;gradientDirection=radial;fillColor=#e1d5e7;strokeColor=#9673a6;" vertex="1" parent="77e6c97f196da883-4">
          <mxGeometry x="35" y="30" width="120" height="70" as="geometry" />
        </mxCell>
        <mxCell id="77e6c97f196da883-5" value="app" style="swimlane;html=1;startSize=20;" parent="77e6c97f196da883-1" vertex="1">
          <mxGeometry x="510" y="20" width="160" height="1140" as="geometry" />
        </mxCell>
        <mxCell id="wOlXXrE9V5EayPUPCzCK-353" style="edgeStyle=orthogonalEdgeStyle;curved=1;rounded=0;orthogonalLoop=1;jettySize=auto;html=1;exitX=0.5;exitY=1;exitDx=0;exitDy=0;entryX=0.5;entryY=0;entryDx=0;entryDy=0;fontSize=12;" edge="1" parent="77e6c97f196da883-5" source="wOlXXrE9V5EayPUPCzCK-37" target="wOlXXrE9V5EayPUPCzCK-26">
          <mxGeometry relative="1" as="geometry" />
        </mxCell>
        <mxCell id="wOlXXrE9V5EayPUPCzCK-37" value="Seller uploads/updates her gig(s)" style="whiteSpace=wrap;html=1;rounded=1;gradientDirection=radial;fillColor=#dae8fc;strokeColor=#6c8ebf;" vertex="1" parent="77e6c97f196da883-5">
          <mxGeometry x="20" y="210" width="120" height="60" as="geometry" />
        </mxCell>
        <mxCell id="wOlXXrE9V5EayPUPCzCK-26" value="&lt;font style=&quot;font-size: 12px&quot;&gt;Seller gets offer from buyer&lt;/font&gt;" style="whiteSpace=wrap;html=1;fontSize=8;fontFamily=Verdana;rounded=1;shadow=0;labelBackgroundColor=none;strokeWidth=1;fillColor=#dae8fc;strokeColor=#6c8ebf;" vertex="1" parent="77e6c97f196da883-5">
          <mxGeometry x="20" y="323" width="120" height="60" as="geometry" />
        </mxCell>
        <mxCell id="wOlXXrE9V5EayPUPCzCK-27" value="" style="edgeStyle=orthogonalEdgeStyle;rounded=0;orthogonalLoop=1;jettySize=auto;html=1;fontSize=12;" edge="1" parent="77e6c97f196da883-1">
          <mxGeometry relative="1" as="geometry">
            <mxPoint x="130" y="384" as="sourcePoint" />
            <mxPoint x="530" y="384" as="targetPoint" />
            <Array as="points">
              <mxPoint x="220" y="384" />
              <mxPoint x="220" y="384" />
            </Array>
          </mxGeometry>
        </mxCell>
        <mxCell id="wOlXXrE9V5EayPUPCzCK-348" style="edgeStyle=orthogonalEdgeStyle;rounded=0;orthogonalLoop=1;jettySize=auto;html=1;exitX=0.5;exitY=1;exitDx=0;exitDy=0;entryX=1;entryY=0.5;entryDx=0;entryDy=0;fontSize=12;" edge="1" parent="77e6c97f196da883-1" source="wOlXXrE9V5EayPUPCzCK-26" target="wOlXXrE9V5EayPUPCzCK-42">
          <mxGeometry relative="1" as="geometry" />
        </mxCell>
        <mxCell id="wOlXXrE9V5EayPUPCzCK-350" style="edgeStyle=orthogonalEdgeStyle;rounded=0;orthogonalLoop=1;jettySize=auto;html=1;exitX=1;exitY=0.5;exitDx=0;exitDy=0;fontSize=12;entryX=0.5;entryY=0;entryDx=0;entryDy=0;" edge="1" parent="77e6c97f196da883-1" source="wOlXXrE9V5EayPUPCzCK-36" target="wOlXXrE9V5EayPUPCzCK-37">
          <mxGeometry relative="1" as="geometry" />
        </mxCell>
        <mxCell id="wOlXXrE9V5EayPUPCzCK-365" value="" style="edgeStyle=orthogonalEdgeStyle;curved=1;rounded=0;orthogonalLoop=1;jettySize=auto;html=1;fontSize=12;" edge="1" parent="77e6c97f196da883-1" source="wOlXXrE9V5EayPUPCzCK-362">
          <mxGeometry relative="1" as="geometry">
            <mxPoint x="140" y="701" as="targetPoint" />
          </mxGeometry>
        </mxCell>
        <mxCell id="wOlXXrE9V5EayPUPCzCK-22" value="" style="edgeStyle=orthogonalEdgeStyle;rounded=0;orthogonalLoop=1;jettySize=auto;html=1;fontSize=12;" edge="1" parent="77e6c97f196da883-1" source="77e6c97f196da883-8" target="77e6c97f196da883-9">
          <mxGeometry relative="1" as="geometry" />
        </mxCell>
        <mxCell id="wOlXXrE9V5EayPUPCzCK-23" value="" style="edgeStyle=orthogonalEdgeStyle;rounded=0;orthogonalLoop=1;jettySize=auto;html=1;fontSize=12;" edge="1" parent="77e6c97f196da883-1" source="77e6c97f196da883-9" target="77e6c97f196da883-10">
          <mxGeometry relative="1" as="geometry">
            <Array as="points">
              <mxPoint x="240" y="360" />
            </Array>
          </mxGeometry>
        </mxCell>
        <mxCell id="wOlXXrE9V5EayPUPCzCK-376" style="edgeStyle=orthogonalEdgeStyle;curved=1;rounded=0;orthogonalLoop=1;jettySize=auto;html=1;exitX=1;exitY=0.5;exitDx=0;exitDy=0;fontSize=12;" edge="1" parent="77e6c97f196da883-1" source="wOlXXrE9V5EayPUPCzCK-368" target="wOlXXrE9V5EayPUPCzCK-375">
          <mxGeometry relative="1" as="geometry" />
        </mxCell>
        <mxCell id="wOlXXrE9V5EayPUPCzCK-381" value="" style="edgeStyle=orthogonalEdgeStyle;curved=1;rounded=0;orthogonalLoop=1;jettySize=auto;html=1;fontSize=12;" edge="1" parent="77e6c97f196da883-1" source="wOlXXrE9V5EayPUPCzCK-375" target="wOlXXrE9V5EayPUPCzCK-380">
          <mxGeometry relative="1" as="geometry" />
        </mxCell>
        <mxCell id="wOlXXrE9V5EayPUPCzCK-417" value="" style="edgeStyle=orthogonalEdgeStyle;curved=1;rounded=0;orthogonalLoop=1;jettySize=auto;html=1;fontSize=12;" edge="1" parent="77e6c97f196da883-1">
          <mxGeometry relative="1" as="geometry">
            <mxPoint x="144" y="950" as="sourcePoint" />
            <mxPoint x="180" y="950" as="targetPoint" />
            <Array as="points">
              <mxPoint x="150" y="950" />
              <mxPoint x="150" y="950" />
            </Array>
          </mxGeometry>
        </mxCell>
        <mxCell id="wOlXXrE9V5EayPUPCzCK-424" value="" style="edgeStyle=orthogonalEdgeStyle;curved=1;rounded=0;orthogonalLoop=1;jettySize=auto;html=1;fontSize=12;" edge="1" parent="77e6c97f196da883-1" source="wOlXXrE9V5EayPUPCzCK-416" target="wOlXXrE9V5EayPUPCzCK-423">
          <mxGeometry relative="1" as="geometry" />
        </mxCell>
        <mxCell id="wOlXXrE9V5EayPUPCzCK-355" value="" style="edgeStyle=orthogonalEdgeStyle;curved=1;rounded=0;orthogonalLoop=1;jettySize=auto;html=1;fontSize=12;" edge="1" parent="1" source="wOlXXrE9V5EayPUPCzCK-337" target="wOlXXrE9V5EayPUPCzCK-344">
          <mxGeometry relative="1" as="geometry" />
        </mxCell>
        <mxCell id="wOlXXrE9V5EayPUPCzCK-337" value="yes" style="text;html=1;resizable=0;autosize=1;align=center;verticalAlign=middle;points=[];fillColor=none;strokeColor=none;rounded=0;fontSize=12;" vertex="1" parent="1">
          <mxGeometry x="475" y="557" width="30" height="20" as="geometry" />
        </mxCell>
        <mxCell id="wOlXXrE9V5EayPUPCzCK-361" value="" style="edgeStyle=orthogonalEdgeStyle;rounded=0;orthogonalLoop=1;jettySize=auto;html=1;fontSize=12;" edge="1" parent="1" source="wOlXXrE9V5EayPUPCzCK-356" target="wOlXXrE9V5EayPUPCzCK-340">
          <mxGeometry relative="1" as="geometry" />
        </mxCell>
        <mxCell id="wOlXXrE9V5EayPUPCzCK-356" value="no" style="text;html=1;resizable=0;autosize=1;align=center;verticalAlign=middle;points=[];fillColor=none;strokeColor=none;rounded=0;fontSize=12;" vertex="1" parent="1">
          <mxGeometry x="395" y="476" width="30" height="20" as="geometry" />
        </mxCell>
        <mxCell id="wOlXXrE9V5EayPUPCzCK-420" value="" style="edgeStyle=orthogonalEdgeStyle;rounded=0;orthogonalLoop=1;jettySize=auto;html=1;fontSize=12;" edge="1" parent="1" source="wOlXXrE9V5EayPUPCzCK-42" target="wOlXXrE9V5EayPUPCzCK-356">
          <mxGeometry relative="1" as="geometry" />
        </mxCell>
        <mxCell id="wOlXXrE9V5EayPUPCzCK-421" style="edgeStyle=orthogonalEdgeStyle;curved=1;rounded=0;orthogonalLoop=1;jettySize=auto;html=1;exitX=0.5;exitY=1;exitDx=0;exitDy=0;entryX=0.5;entryY=-0.35;entryDx=0;entryDy=0;entryPerimeter=0;fontSize=12;" edge="1" parent="1" source="wOlXXrE9V5EayPUPCzCK-42" target="wOlXXrE9V5EayPUPCzCK-337">
          <mxGeometry relative="1" as="geometry" />
        </mxCell>
      </root>
    </mxGraphModel>
  </diagram>
</mxfile>
